<?xml version="1.0" encoding="UTF-8"?><svg xmlns="http://www.w3.org/2000/svg" viewBox="0 0 40.43 39.28"><defs><style>.d{fill:#fff;}.d,.e{stroke:#490f0f;stroke-linecap:round;stroke-linejoin:round;stroke-width:2px;}.e{fill:#fce36f;}</style></defs><g id="a"/><g id="b"><g id="c"><g><path class="d" d="M7.12,1C3.74,1,1,3.74,1,7.12v31.16l7.31-6.79h25c3.38,0,6.12-2.74,6.12-6.12V7.12c0-3.38-2.74-6.12-6.12-6.12H7.12Z"/><g><circle class="e" cx="20.72" cy="24.04" r="3.26"/><path class="e" d="M20.72,6.58c-3.8,0-6.88,3.08-6.88,6.88v8.94h13.75V13.46c0-3.8-3.08-6.88-6.88-6.88Z"/><path class="e" d="M15.48,19.29h10.48c2.45,0,4.43,1.99,4.43,4.43H11.05c0-2.45,1.99-4.43,4.43-4.43Z"/><line class="e" x1="20.72" y1="6.58" x2="20.72" y2="4.55"/></g></g></g></g></svg>